<mxfile host="app.diagrams.net" agent="Mozilla/5.0 (Windows NT 10.0; Win64; x64) AppleWebKit/537.36 (KHTML, like Gecko) Chrome/138.0.0.0 Safari/537.36" version="28.0.9">
  <diagram name="第 1 页" id="uD2HGKCCgwlrdoaZ8v8J">
    <mxGraphModel dx="1426" dy="785" grid="1" gridSize="10" guides="1" tooltips="1" connect="1" arrows="1" fold="1" page="1" pageScale="1" pageWidth="827" pageHeight="1169" math="0" shadow="0">
      <root>
        <mxCell id="0" />
        <mxCell id="1" parent="0" />
        <mxCell id="Y2CEgVTqDtOdaRStuTCx-6" value="" style="rounded=0;whiteSpace=wrap;html=1;direction=south;" vertex="1" parent="1">
          <mxGeometry x="560" y="90" width="60" height="310" as="geometry" />
        </mxCell>
        <mxCell id="Y2CEgVTqDtOdaRStuTCx-8" value="1" style="ellipse;whiteSpace=wrap;html=1;aspect=fixed;fillColor=#d5e8d4;strokeColor=#82b366;" vertex="1" parent="1">
          <mxGeometry x="560" y="340" width="60" height="60" as="geometry" />
        </mxCell>
        <mxCell id="Y2CEgVTqDtOdaRStuTCx-14" value="" style="rounded=0;whiteSpace=wrap;html=1;direction=south;" vertex="1" parent="1">
          <mxGeometry x="570" y="440" width="60" height="310" as="geometry" />
        </mxCell>
        <mxCell id="Y2CEgVTqDtOdaRStuTCx-16" value="1" style="ellipse;whiteSpace=wrap;html=1;aspect=fixed;fillColor=#d5e8d4;strokeColor=#82b366;" vertex="1" parent="1">
          <mxGeometry x="700" y="540" width="60" height="60" as="geometry" />
        </mxCell>
        <mxCell id="Y2CEgVTqDtOdaRStuTCx-18" value="" style="edgeStyle=orthogonalEdgeStyle;rounded=0;orthogonalLoop=1;jettySize=auto;html=1;" edge="1" parent="1" source="Y2CEgVTqDtOdaRStuTCx-19" target="Y2CEgVTqDtOdaRStuTCx-21">
          <mxGeometry relative="1" as="geometry" />
        </mxCell>
        <mxCell id="Y2CEgVTqDtOdaRStuTCx-19" value="1" style="ellipse;whiteSpace=wrap;html=1;aspect=fixed;fillColor=#f8cecc;strokeColor=#b85450;" vertex="1" parent="1">
          <mxGeometry x="300" y="860" width="40" height="40" as="geometry" />
        </mxCell>
        <mxCell id="Y2CEgVTqDtOdaRStuTCx-20" value="" style="edgeStyle=orthogonalEdgeStyle;rounded=0;orthogonalLoop=1;jettySize=auto;html=1;" edge="1" parent="1" source="Y2CEgVTqDtOdaRStuTCx-21" target="Y2CEgVTqDtOdaRStuTCx-22">
          <mxGeometry relative="1" as="geometry" />
        </mxCell>
        <mxCell id="Y2CEgVTqDtOdaRStuTCx-21" value="2" style="ellipse;whiteSpace=wrap;html=1;aspect=fixed;fillColor=#f8cecc;strokeColor=#b85450;" vertex="1" parent="1">
          <mxGeometry x="350" y="940" width="40" height="40" as="geometry" />
        </mxCell>
        <mxCell id="Y2CEgVTqDtOdaRStuTCx-22" value="3" style="ellipse;whiteSpace=wrap;html=1;aspect=fixed;fillColor=#f8cecc;strokeColor=#b85450;" vertex="1" parent="1">
          <mxGeometry x="290" y="1010" width="40" height="40" as="geometry" />
        </mxCell>
        <mxCell id="Y2CEgVTqDtOdaRStuTCx-23" value="" style="rounded=0;whiteSpace=wrap;html=1;direction=south;" vertex="1" parent="1">
          <mxGeometry x="570" y="800" width="60" height="310" as="geometry" />
        </mxCell>
        <mxCell id="Y2CEgVTqDtOdaRStuTCx-24" value="1" style="ellipse;whiteSpace=wrap;html=1;aspect=fixed;fillColor=#d5e8d4;strokeColor=#82b366;" vertex="1" parent="1">
          <mxGeometry x="700" y="900" width="60" height="60" as="geometry" />
        </mxCell>
        <mxCell id="Y2CEgVTqDtOdaRStuTCx-25" value="2" style="ellipse;whiteSpace=wrap;html=1;aspect=fixed;fillColor=#d5e8d4;strokeColor=#82b366;" vertex="1" parent="1">
          <mxGeometry x="570" y="1050" width="60" height="60" as="geometry" />
        </mxCell>
        <mxCell id="Y2CEgVTqDtOdaRStuTCx-31" value="" style="rounded=0;whiteSpace=wrap;html=1;direction=south;" vertex="1" parent="1">
          <mxGeometry x="570" y="1150" width="60" height="310" as="geometry" />
        </mxCell>
        <mxCell id="Y2CEgVTqDtOdaRStuTCx-32" value="1" style="ellipse;whiteSpace=wrap;html=1;aspect=fixed;fillColor=#d5e8d4;strokeColor=#82b366;" vertex="1" parent="1">
          <mxGeometry x="700" y="1250" width="60" height="60" as="geometry" />
        </mxCell>
        <mxCell id="Y2CEgVTqDtOdaRStuTCx-33" value="3" style="ellipse;whiteSpace=wrap;html=1;aspect=fixed;fillColor=#d5e8d4;strokeColor=#82b366;" vertex="1" parent="1">
          <mxGeometry x="570" y="980" width="60" height="60" as="geometry" />
        </mxCell>
        <mxCell id="Y2CEgVTqDtOdaRStuTCx-47" value="" style="rounded=0;whiteSpace=wrap;html=1;direction=south;" vertex="1" parent="1">
          <mxGeometry x="570" y="1510" width="60" height="310" as="geometry" />
        </mxCell>
        <mxCell id="Y2CEgVTqDtOdaRStuTCx-48" value="1" style="ellipse;whiteSpace=wrap;html=1;aspect=fixed;fillColor=#d5e8d4;strokeColor=#82b366;" vertex="1" parent="1">
          <mxGeometry x="700" y="1610" width="60" height="60" as="geometry" />
        </mxCell>
        <mxCell id="Y2CEgVTqDtOdaRStuTCx-49" value="2" style="ellipse;whiteSpace=wrap;html=1;aspect=fixed;fillColor=#d5e8d4;strokeColor=#82b366;" vertex="1" parent="1">
          <mxGeometry x="700" y="1790" width="60" height="60" as="geometry" />
        </mxCell>
        <mxCell id="Y2CEgVTqDtOdaRStuTCx-50" value="3" style="ellipse;whiteSpace=wrap;html=1;aspect=fixed;fillColor=#d5e8d4;strokeColor=#82b366;" vertex="1" parent="1">
          <mxGeometry x="700" y="1690" width="60" height="60" as="geometry" />
        </mxCell>
        <mxCell id="Y2CEgVTqDtOdaRStuTCx-51" value="2" style="ellipse;whiteSpace=wrap;html=1;aspect=fixed;fillColor=#d5e8d4;strokeColor=#82b366;" vertex="1" parent="1">
          <mxGeometry x="570" y="1400" width="60" height="60" as="geometry" />
        </mxCell>
        <mxCell id="Y2CEgVTqDtOdaRStuTCx-52" value="3" style="ellipse;whiteSpace=wrap;html=1;aspect=fixed;fillColor=#d5e8d4;strokeColor=#82b366;" vertex="1" parent="1">
          <mxGeometry x="700" y="1330" width="60" height="60" as="geometry" />
        </mxCell>
        <mxCell id="Y2CEgVTqDtOdaRStuTCx-53" value="" style="edgeStyle=orthogonalEdgeStyle;rounded=0;orthogonalLoop=1;jettySize=auto;html=1;" edge="1" parent="1" source="Y2CEgVTqDtOdaRStuTCx-54" target="Y2CEgVTqDtOdaRStuTCx-56">
          <mxGeometry relative="1" as="geometry" />
        </mxCell>
        <mxCell id="Y2CEgVTqDtOdaRStuTCx-54" value="1" style="ellipse;whiteSpace=wrap;html=1;aspect=fixed;fillColor=#f8cecc;strokeColor=#b85450;" vertex="1" parent="1">
          <mxGeometry x="340" y="510" width="40" height="40" as="geometry" />
        </mxCell>
        <mxCell id="Y2CEgVTqDtOdaRStuTCx-55" value="" style="edgeStyle=orthogonalEdgeStyle;rounded=0;orthogonalLoop=1;jettySize=auto;html=1;" edge="1" parent="1" source="Y2CEgVTqDtOdaRStuTCx-56" target="Y2CEgVTqDtOdaRStuTCx-57">
          <mxGeometry relative="1" as="geometry" />
        </mxCell>
        <mxCell id="Y2CEgVTqDtOdaRStuTCx-56" value="2" style="ellipse;whiteSpace=wrap;html=1;aspect=fixed;" vertex="1" parent="1">
          <mxGeometry x="390" y="590" width="40" height="40" as="geometry" />
        </mxCell>
        <mxCell id="Y2CEgVTqDtOdaRStuTCx-57" value="3" style="ellipse;whiteSpace=wrap;html=1;aspect=fixed;" vertex="1" parent="1">
          <mxGeometry x="330" y="660" width="40" height="40" as="geometry" />
        </mxCell>
        <mxCell id="Y2CEgVTqDtOdaRStuTCx-58" value="" style="edgeStyle=orthogonalEdgeStyle;rounded=0;orthogonalLoop=1;jettySize=auto;html=1;" edge="1" parent="1" source="Y2CEgVTqDtOdaRStuTCx-59" target="Y2CEgVTqDtOdaRStuTCx-61">
          <mxGeometry relative="1" as="geometry" />
        </mxCell>
        <mxCell id="Y2CEgVTqDtOdaRStuTCx-59" value="1" style="ellipse;whiteSpace=wrap;html=1;aspect=fixed;" vertex="1" parent="1">
          <mxGeometry x="320" y="140" width="40" height="40" as="geometry" />
        </mxCell>
        <mxCell id="Y2CEgVTqDtOdaRStuTCx-60" value="" style="edgeStyle=orthogonalEdgeStyle;rounded=0;orthogonalLoop=1;jettySize=auto;html=1;" edge="1" parent="1" source="Y2CEgVTqDtOdaRStuTCx-61" target="Y2CEgVTqDtOdaRStuTCx-62">
          <mxGeometry relative="1" as="geometry" />
        </mxCell>
        <mxCell id="Y2CEgVTqDtOdaRStuTCx-61" value="2" style="ellipse;whiteSpace=wrap;html=1;aspect=fixed;" vertex="1" parent="1">
          <mxGeometry x="370" y="220" width="40" height="40" as="geometry" />
        </mxCell>
        <mxCell id="Y2CEgVTqDtOdaRStuTCx-62" value="3" style="ellipse;whiteSpace=wrap;html=1;aspect=fixed;" vertex="1" parent="1">
          <mxGeometry x="310" y="290" width="40" height="40" as="geometry" />
        </mxCell>
        <mxCell id="Y2CEgVTqDtOdaRStuTCx-63" value="" style="edgeStyle=orthogonalEdgeStyle;rounded=0;orthogonalLoop=1;jettySize=auto;html=1;" edge="1" parent="1" source="Y2CEgVTqDtOdaRStuTCx-64" target="Y2CEgVTqDtOdaRStuTCx-66">
          <mxGeometry relative="1" as="geometry" />
        </mxCell>
        <mxCell id="Y2CEgVTqDtOdaRStuTCx-64" value="1" style="ellipse;whiteSpace=wrap;html=1;aspect=fixed;fillColor=#f8cecc;strokeColor=#b85450;" vertex="1" parent="1">
          <mxGeometry x="300" y="1230" width="40" height="40" as="geometry" />
        </mxCell>
        <mxCell id="Y2CEgVTqDtOdaRStuTCx-65" value="" style="edgeStyle=orthogonalEdgeStyle;rounded=0;orthogonalLoop=1;jettySize=auto;html=1;" edge="1" parent="1" source="Y2CEgVTqDtOdaRStuTCx-66" target="Y2CEgVTqDtOdaRStuTCx-67">
          <mxGeometry relative="1" as="geometry" />
        </mxCell>
        <mxCell id="Y2CEgVTqDtOdaRStuTCx-66" value="2" style="ellipse;whiteSpace=wrap;html=1;aspect=fixed;fillColor=#f8cecc;strokeColor=#b85450;" vertex="1" parent="1">
          <mxGeometry x="350" y="1310" width="40" height="40" as="geometry" />
        </mxCell>
        <mxCell id="Y2CEgVTqDtOdaRStuTCx-67" value="3" style="ellipse;whiteSpace=wrap;html=1;aspect=fixed;fillColor=#f8cecc;strokeColor=#b85450;" vertex="1" parent="1">
          <mxGeometry x="290" y="1380" width="40" height="40" as="geometry" />
        </mxCell>
        <mxCell id="Y2CEgVTqDtOdaRStuTCx-68" value="" style="edgeStyle=orthogonalEdgeStyle;rounded=0;orthogonalLoop=1;jettySize=auto;html=1;" edge="1" parent="1" source="Y2CEgVTqDtOdaRStuTCx-69" target="Y2CEgVTqDtOdaRStuTCx-71">
          <mxGeometry relative="1" as="geometry" />
        </mxCell>
        <mxCell id="Y2CEgVTqDtOdaRStuTCx-69" value="1" style="ellipse;whiteSpace=wrap;html=1;aspect=fixed;fillColor=#f8cecc;strokeColor=#b85450;" vertex="1" parent="1">
          <mxGeometry x="310" y="1600" width="40" height="40" as="geometry" />
        </mxCell>
        <mxCell id="Y2CEgVTqDtOdaRStuTCx-70" value="" style="edgeStyle=orthogonalEdgeStyle;rounded=0;orthogonalLoop=1;jettySize=auto;html=1;" edge="1" parent="1" source="Y2CEgVTqDtOdaRStuTCx-71" target="Y2CEgVTqDtOdaRStuTCx-72">
          <mxGeometry relative="1" as="geometry" />
        </mxCell>
        <mxCell id="Y2CEgVTqDtOdaRStuTCx-71" value="2" style="ellipse;whiteSpace=wrap;html=1;aspect=fixed;fillColor=#f8cecc;strokeColor=#b85450;" vertex="1" parent="1">
          <mxGeometry x="360" y="1680" width="40" height="40" as="geometry" />
        </mxCell>
        <mxCell id="Y2CEgVTqDtOdaRStuTCx-72" value="3" style="ellipse;whiteSpace=wrap;html=1;aspect=fixed;fillColor=#f8cecc;strokeColor=#b85450;" vertex="1" parent="1">
          <mxGeometry x="300" y="1750" width="40" height="40" as="geometry" />
        </mxCell>
      </root>
    </mxGraphModel>
  </diagram>
</mxfile>
